<svg width="160" height="160" viewBox="0 0 160 160" fill="none" xmlns="http://www.w3.org/2000/svg">
<g clip-path="url(#clip0_344_551)">
<path d="M159.885 80.4369C159.885 36.5381 124.299 0.951172 80.3998 0.951172C36.501 0.951172 0.914062 36.5381 0.914062 80.4369C0.914062 120.11 29.9807 152.994 67.9801 158.957V103.413H47.7982V80.4369H67.9801V62.9252C67.9801 43.0041 79.8471 32.0003 98.0031 32.0003C106.697 32.0003 115.796 33.5527 115.796 33.5527V53.1137H105.773C95.8995 53.1137 92.8194 59.2412 92.8194 65.5333V80.4369H114.864L111.34 103.413H92.8194V158.957C130.819 152.994 159.885 120.11 159.885 80.4369Z" fill="white"/>
</g>
<defs>
<clipPath id="clip0_344_551">
<rect width="158.971" height="158.971" fill="white" transform="translate(0.914062 0.951172)"/>
</clipPath>
</defs>
</svg>
