<svg width="202" height="202" viewBox="0 0 202 202" fill="none" xmlns="http://www.w3.org/2000/svg">
<path fill-rule="evenodd" clip-rule="evenodd" d="M8.41699 23.8859C8.41699 19.783 10.0468 15.8482 12.948 12.947C15.8492 10.0459 19.784 8.41604 23.8868 8.41604H178.097C180.13 8.41272 182.144 8.81047 184.024 9.58651C185.903 10.3626 187.611 11.5017 189.049 12.9386C190.488 14.3756 191.629 16.0821 192.407 17.9606C193.185 19.8391 193.585 21.8526 193.584 23.8859V178.096C193.586 180.13 193.187 182.144 192.41 184.023C191.633 185.903 190.493 187.61 189.056 189.049C187.618 190.487 185.911 191.628 184.032 192.406C182.153 193.184 180.139 193.584 178.105 193.583H23.8868C21.8546 193.583 19.8423 193.182 17.9648 192.404C16.0874 191.626 14.3816 190.486 12.945 189.049C11.5084 187.611 10.3691 185.905 9.59215 184.027C8.81521 182.149 8.41589 180.137 8.41699 178.104V23.8859ZM81.7093 79.015H106.783V91.6064C110.402 84.368 119.66 77.8535 133.573 77.8535C160.245 77.8535 166.566 92.2713 166.566 118.725V167.727H139.574V124.751C139.574 109.685 135.955 101.185 126.764 101.185C114.012 101.185 108.71 110.35 108.71 124.751V167.727H81.7093V79.015ZM35.4177 166.574H62.4183V77.8535H35.4177V166.565V166.574ZM66.2816 48.917C66.3325 51.2289 65.9211 53.5276 65.0716 55.6783C64.2221 57.829 62.9515 59.7883 61.3345 61.4413C59.7175 63.0943 57.7866 64.4077 55.6552 65.3043C53.5237 66.201 51.2346 66.6629 48.9222 66.6629C46.6098 66.6629 44.3207 66.201 42.1893 65.3043C40.0578 64.4077 38.1269 63.0943 36.5099 61.4413C34.8929 59.7883 33.6223 57.829 32.7728 55.6783C31.9233 53.5276 31.5119 51.2289 31.5628 48.917C31.6628 44.3792 33.5356 40.0609 36.7802 36.887C40.0248 33.713 44.3833 31.9357 48.9222 31.9357C53.4611 31.9357 57.8196 33.713 61.0642 36.887C64.3088 40.0609 66.1817 44.3792 66.2816 48.917V48.917Z" fill="black"/>
</svg>
