<svg width="160" height="160" viewBox="0 0 160 160" fill="none" xmlns="http://www.w3.org/2000/svg">
<g clip-path="url(#clip0_344_550)">
<path d="M147.693 0.951172H12.1922C9.07985 0.951172 6.09496 2.18756 3.89419 4.38833C1.69341 6.5891 0.457031 9.57399 0.457031 12.6864V148.187C0.457031 151.3 1.69341 154.285 3.89419 156.485C6.09496 158.686 9.07985 159.923 12.1922 159.923H147.693C150.806 159.923 153.791 158.686 155.991 156.485C158.192 154.285 159.428 151.3 159.428 148.187V12.6864C159.428 9.57399 158.192 6.5891 155.991 4.38833C153.791 2.18756 150.806 0.951172 147.693 0.951172ZM47.8393 136.375H23.9384V60.4551H47.8393V136.375ZM35.8723 49.9342C33.1612 49.919 30.5153 49.1009 28.2686 47.5834C26.022 46.0658 24.2752 43.9167 23.2487 41.4073C22.2223 38.898 21.9622 36.1408 22.5013 33.4837C23.0403 30.8267 24.3544 28.3888 26.2777 26.4779C28.2009 24.567 30.6471 23.2686 33.3076 22.7466C35.9681 22.2246 38.7235 22.5024 41.2263 23.5449C43.729 24.5874 45.8668 26.348 47.3699 28.6043C48.873 30.8607 49.6741 33.5118 49.6719 36.223C49.6975 38.0381 49.3574 39.8398 48.6718 41.5207C47.9863 43.2016 46.9693 44.7273 45.6816 46.0068C44.3938 47.2863 42.8617 48.2934 41.1764 48.9682C39.4911 49.6429 37.6873 49.9715 35.8723 49.9342ZM135.936 136.441H112.046V94.9651C112.046 82.7332 106.846 78.9576 100.134 78.9576C93.0469 78.9576 86.0919 84.3008 86.0919 95.2742V136.441H62.1909V60.5103H85.1756V71.0311H85.4847C87.792 66.3613 95.873 58.3796 108.204 58.3796C121.54 58.3796 135.947 66.2951 135.947 89.4784L135.936 136.441Z" fill="white"/>
</g>
<defs>
<clipPath id="clip0_344_550">
<rect width="158.971" height="158.971" fill="white" transform="translate(0.457031 0.951172)"/>
</clipPath>
</defs>
</svg>
