<svg width="175" height="174" viewBox="0 0 175 174" fill="none" xmlns="http://www.w3.org/2000/svg">
<path d="M126.411 103.998C124.295 102.911 113.758 97.749 111.798 97.0504C109.838 96.313 108.402 95.9637 106.986 98.1371C105.55 100.291 101.474 105.084 100.194 106.54C98.9517 107.976 97.6903 108.15 95.5751 107.083C83.0002 100.796 74.7528 95.8666 66.4665 81.6423C64.2737 77.8581 68.6594 78.1298 72.754 69.96C73.4526 68.524 73.1033 67.3015 72.5599 66.2147C72.0165 65.128 67.7473 54.6101 65.962 50.3215C64.2349 46.1492 62.4495 46.7314 61.1494 46.6538C59.9074 46.5762 58.4908 46.5762 57.0548 46.5762C55.6187 46.5762 53.3095 47.1195 51.3495 49.2348C49.3895 51.3888 43.8589 56.5701 43.8589 67.088C43.8589 77.6059 51.5241 87.7939 52.572 89.2299C53.6588 90.6659 67.6503 112.245 89.1324 121.54C102.716 127.401 108.034 127.905 114.826 126.896C118.959 126.275 127.478 121.734 129.244 116.708C131.01 111.702 131.01 107.413 130.486 106.52C129.962 105.569 128.526 105.026 126.411 103.998Z" fill="#FAFAFA"/>
<path d="M167.494 53.2492C163.109 42.8284 156.821 33.4748 148.807 25.4409C140.792 17.4263 131.438 11.1195 120.998 6.75318C110.325 2.27047 98.9922 0 87.3099 0H86.9218C75.162 0.0582171 63.7708 2.3869 53.0589 6.96664C42.7157 11.3911 33.4397 17.6786 25.5028 25.6931C17.5659 33.7077 11.3367 43.0224 7.02859 53.4045C2.56528 64.1552 0.314222 75.5852 0.372439 87.345C0.430656 100.813 3.652 114.183 9.68717 126.137V155.634C9.68717 160.563 13.6847 164.56 18.6138 164.56H48.1299C60.0838 170.595 73.4543 173.817 86.9218 173.875H87.3293C98.9534 173.875 110.228 171.624 120.843 167.219C131.225 162.891 140.559 156.682 148.554 148.745C156.569 140.808 162.876 131.532 167.281 121.189C171.861 110.477 174.189 99.0855 174.247 87.3256C174.306 75.5075 172.016 64.0388 167.494 53.2492V53.2492ZM138.172 138.246C124.569 151.714 106.522 159.127 87.3099 159.127H86.98C75.2784 159.068 63.6544 156.158 53.3888 150.685L51.7587 149.812H24.4355V122.489L23.5622 120.859C18.0898 110.593 15.179 98.969 15.1208 87.2674C15.0431 67.9199 22.4367 49.7562 36.0013 36.0752C49.5465 22.3942 67.652 14.8259 86.9995 14.7483H87.3293C97.0322 14.7483 106.444 16.6307 115.312 20.3566C123.967 23.9854 131.73 29.2056 138.405 35.8811C145.061 42.5373 150.301 50.319 153.93 58.9739C157.694 67.9393 159.577 77.4481 159.538 87.2674C159.422 106.595 151.834 124.701 138.172 138.246V138.246Z" fill="#FAFAFA"/>
</svg>
